<svg width="1418" height="600" viewBox="0 0 1418 600" fill="none" xmlns="http://www.w3.org/2000/svg">
<path d="M1187.68 599.996L957.839 159.873H1092.67L1158.34 294.704C1164.19 306.385 1169.63 317.676 1175.11 329.635C1180.06 340.437 1183.74 349.125 1190.07 363.704C1196.79 349.491 1200.72 340.812 1205.85 329.635C1211.16 318.032 1216.48 306.717 1222.61 294.704L1288.28 159.873H1417.52L1187.68 599.996Z" fill="white"/>
<path d="M797.864 599.999V159.873H919.422V599.999H797.864Z" fill="white"/>
<path d="M223.134 600C182.33 600 144.965 590.143 111.039 570.429C77.1122 550.715 50.0627 524.124 29.8902 490.656C10.1761 457.188 0.319107 420.281 0.319107 379.936C0.319107 339.133 10.1761 302.226 29.8902 269.217C50.0627 235.749 77.1122 209.158 111.039 189.444C144.965 169.73 182.33 159.873 223.134 159.873C264.396 159.873 301.76 169.73 335.229 189.444C369.155 209.158 395.975 235.749 415.689 269.217C435.862 302.226 445.948 339.133 445.948 379.936C445.948 420.281 435.862 457.188 415.689 490.656C395.975 524.124 369.155 550.715 335.229 570.429C301.76 590.143 264.396 600 223.134 600ZM223.134 492.719C243.765 492.719 262.332 487.676 278.837 477.59C295.8 467.503 309.096 453.979 318.724 437.015C328.81 419.594 333.853 400.567 333.853 379.936C333.853 358.847 328.81 339.821 318.724 322.857C309.096 305.894 295.8 292.369 278.837 282.283C262.332 272.197 243.765 267.154 223.134 267.154C202.503 267.154 183.706 272.197 166.742 282.283C150.237 292.369 136.942 305.894 126.856 322.857C117.228 339.821 112.414 358.847 112.414 379.936C112.414 400.567 117.228 419.594 126.856 437.015C136.942 453.979 150.237 467.503 166.742 477.59C183.706 487.676 202.503 492.719 223.134 492.719Z" fill="white"/>
<path d="M484.36 599.997V159.87C539.523 159.869 594.685 159.871 649.848 159.869C675.799 159.869 728.889 159.869 759.455 159.869V264.033C744.04 264.033 740.112 264.033 728.65 264.033C692.83 264.033 630.101 264.033 609.013 264.033C609.013 284.887 609.013 357.193 609.013 401.206V599.997H484.36Z" fill="white"/>
<rect x="797.864" width="121.549" height="121.549" fill="#FFC700"/>
</svg>
